<?xml version="1.0" encoding="utf-8"?>
<!-- Generator: Adobe Illustrator 23.0.0, SVG Export Plug-In . SVG Version: 6.00 Build 0)  -->
<svg version="1.1" id="Layer_1" xmlns="http://www.w3.org/2000/svg" xmlns:xlink="http://www.w3.org/1999/xlink" x="0px" y="0px"
	 width="139.51862px" height="144px" viewBox="0 0 139.51862 144" style="enable-background:new 0 0 139.51862 144;"
	 xml:space="preserve">
<style type="text/css">
	.st0{fill:url(#SVGID_1_);}
	.st1{fill:url(#SVGID_2_);}
	.st2{fill:url(#SVGID_3_);}
	.st3{fill:url(#SVGID_4_);}
</style>
<linearGradient id="SVGID_1_" gradientUnits="userSpaceOnUse" x1="69.75931" y1="0.94521" x2="69.75931" y2="144.94521" gradientTransform="matrix(1 0 0 -1 0 144.94521)">
	<stop  offset="0.01031" style="stop-color:#6f41e8"/>
	<stop  offset="1" style="stop-color:#6f41e8"/>
</linearGradient>
<path class="st0" d="M96.47308,144c-7.55022,0-13.69296-6.14272-13.69296-13.69295v-16.84234
	c0-8.36719-6.80705-15.17426-15.17426-15.17426s-15.17426,6.80708-15.17426,15.17426v24.80917
	c0,3.1572-2.56865,5.72612-5.72612,5.72612H5.72613C2.56865,144,0,141.43108,0,138.27388V5.72614C0,2.56866,2.56865,0,5.72613,0
	h39.5601c3.15749,0,5.72614,2.56866,5.72614,5.72614v21.79677c0,9.03964,7.3545,16.39413,16.39413,16.39413
	s16.39413-7.35449,16.39413-16.39413V13.07058C83.80064,5.86342,89.66434,0,96.87122,0h36.92127
	c3.15721,0,5.72612,2.56866,5.72612,5.72614v35.68881c0,7.63969-6.21541,13.85484-13.85512,13.85484h-12.09924
	c-8.29842,0-15.04956,6.75114-15.04956,15.04956c0,8.29871,6.75114,15.04984,15.04956,15.04984h12.88379
	c7.20688,0,13.07057,5.8637,13.07057,13.07058v39.83411c0,3.1572-2.56891,5.72612-5.72612,5.72612H96.47308z"/>
<linearGradient id="SVGID_2_" gradientUnits="userSpaceOnUse" x1="69.75931" y1="3.80827" x2="69.75931" y2="142.08214" gradientTransform="matrix(1 0 0 -1 0 144.94521)">
	<stop  offset="0.01031" style="stop-color:#a890f2"/>
	<stop  offset="1" style="stop-color:#a890f2"/>
</linearGradient>
<path class="st1" d="M96.47308,141.13693c-5.97161,0-10.8299-4.85826-10.8299-10.82988v-16.84234
	c0-9.94579-8.09151-18.03732-18.03732-18.03732c-9.94579,0-18.03732,8.09153-18.03732,18.03732v24.80917
	c0,1.58139-1.28196,2.86305-2.86306,2.86305H5.72613c-1.58112,0-2.86307-1.28166-2.86307-2.86305V5.72614
	c0-1.58112,1.28196-2.86307,2.86307-2.86307h39.5601c1.58112,0,2.86308,1.28195,2.86308,2.86307v21.79677
	c0,10.61851,8.63868,19.25722,19.25719,19.25722c10.61825,0,19.25719-8.63871,19.25719-19.25722V13.07058
	c0-5.62855,4.57924-10.2075,10.20752-10.2075h36.92127c1.58139,0,2.86307,1.28195,2.86307,2.86307v35.68881
	c0,6.06081-4.93097,10.99178-10.99207,10.99178h-12.09924c-9.87703,0-17.91262,8.03559-17.91262,17.91262
	c0,9.87731,8.03559,17.9129,17.91262,17.9129h12.88379c5.6283,0,10.20752,4.57924,10.20752,10.20752v39.83411
	c0,1.58139-1.28168,2.86305-2.86307,2.86305H96.47308z"/>
<linearGradient id="SVGID_3_" gradientUnits="userSpaceOnUse" x1="69.75932" y1="6.67133" x2="69.75932" y2="139.21906" gradientTransform="matrix(1 0 0 -1 0 144.94521)">
	<stop  offset="0.01031" style="stop-color:#6f41e8"/>
	<stop  offset="1" style="stop-color:#6f41e8"/>
</linearGradient>
<path class="st2" d="M96.47308,138.27388c-4.39301,0-7.96681-3.57381-7.96681-7.96683v-16.84234
	c0-11.5244-9.37598-20.90038-20.90041-20.90038c-11.52439,0-20.90038,9.37598-20.90038,20.90038v24.80917H5.72613V5.72614h39.5601
	v21.79677c0,12.19711,9.92316,22.12028,22.12028,22.12028c12.1974,0,22.12028-9.92316,22.12028-22.12028V13.07058
	c0-4.04967,3.29476-7.34443,7.34444-7.34443h36.92127v35.68881c0,4.48221-3.6465,8.12871-8.129,8.12871h-12.09924
	c-11.45563,0-20.7757,9.31979-20.7757,20.77569c0,11.45592,9.32008,20.77597,20.7757,20.77597h12.88379
	c4.0497,0,7.34445,3.29478,7.34445,7.34445v39.83411H96.47308z"/>
<linearGradient id="SVGID_4_" gradientUnits="userSpaceOnUse" x1="69.75927" y1="9.53449" x2="69.75927" y2="136.35596" gradientTransform="matrix(1 0 0 -1 0 144.94521)">
	<stop  offset="0.01031" style="stop-color:#6f41e8"/>
	<stop  offset="0.97938" style="stop-color:#6f41e8"/>
</linearGradient>
<path class="st3" d="M8.5892,8.58925h33.83399v18.93361c0,13.79794,11.18543,24.98335,24.98336,24.98335h0.00004
	c13.79793,0,24.98336-11.18541,24.98336-24.98335V13.07058c0-2.47496,2.00635-4.48132,4.48133-4.48132h34.05806v32.8257
	c0,2.90809-2.35748,5.26555-5.26557,5.26555h-12.09959c-13.05544,0-23.63895,10.58353-23.63895,23.63896v0.00004
	c0,13.05545,10.58352,23.63895,23.63895,23.63895h12.88383c2.47497,0,4.48133,2.00637,4.48133,4.48133v36.97093h-34.4564
	c-2.81872,0-5.10374-2.28503-5.10374-5.10374v-16.84232c0-13.1242-10.63925-23.76344-23.76343-23.76344h-0.00004
	c-13.1242,0-23.76345,10.63924-23.76345,23.76344v21.94607H8.5892V8.58925z"/>
</svg>
